<svg xmlns="http://www.w3.org/2000/svg" width="131" height="20" viewBox="0 0 131 20" fill="none">
<path fill-rule="evenodd" clip-rule="evenodd" d="M0 2.00002V2.40803e-05C16.5732 0.0121162 24.923 4.57396 33.1528 9.07452L33.1649 9.08113C41.2896 13.5242 49.2981 17.9038 65.4121 17.9038C81.5261 17.9038 89.5346 13.5242 97.6593 9.08111L97.6713 9.07452C105.912 4.56798 114.273 0 130.89 0C130.927 0 130.963 2.21729e-05 131 6.65188e-05V2.00007C130.963 2.00002 130.927 2 130.89 2C114.776 2 106.768 6.37957 98.643 10.8227L98.631 10.8293C90.3902 15.3358 82.0292 19.9038 65.4121 19.9038C48.795 19.9038 40.4339 15.3358 32.1932 10.8293L32.1811 10.8227C24.0675 6.38564 16.0698 2.01198 0 2.00002Z" fill="rgba(0, 0, 0, 0.5)"/>
</svg>